# xmcd
#
# Track frame offsets: 
#        150
#        17805
#        18868
#        36853
#        48489
#        49868
#        64173
#        81447
#        81835
#        95720
#        99879
#        115566
#        116049
#        128415
#        130045
#        143270
#        176823
#        177140
#
# Disc length: 2614 seconds
#
# Revision: 8
# Processed by: cddbd v1.5.2PL0 Copyright (c) Steve Scherf et al.
# Submitted via: ExactAudioCopy v0.95b3
#
DISCID=e30a3412
DTITLE=Various Artist - Lock, Stock and Two Smoking Barrels
DYEAR=1999
DGENRE=Blues
TTITLE0=Ocean Colour Scene - Hundred Mile High City
TTITLE1=Winston - Dialogue - Hortifuckinculturist
TTITLE2=Junior Murvin - Police and Thieves
TTITLE3=Dusty Springfield - Spooky
TTITLE4=Harry, Barry and Gary - Dialogue - Muppets
TTITLE5=James Brown - The Boss
TTITLE6=E-Z Rollers - Walk This Land
TTITLE7=Barry - Dialogue - Blaspheming Barry
TTITLE8=The Stooges - I Wanna Be Your Dog
TTITLE9=Tom and Nick - Dialogue - It's Kosher
TTITLE10=Stretch - Why Did You Do It?
TTITLE11=Plank and Dog - Dialogue - I've Been Shot
TTITLE12=Evil Superstars - Oh Girl
TTITLE13=Ed and Soap - Dialogue - Guns For Show, Knives For a Pro
TTITLE14=John Murphy and David Hughes - Zorba the Greek
TTITLE15=James Brown - The Payback
TTITLE16=Big Chris - Dialogue - It's Been Emotional
TTITLE17=Pete Wingfield - 18 With a Bullet
EXTD=
EXTT0=
EXTT1=
EXTT2=
EXTT3=
EXTT4=
EXTT5=
EXTT6=
EXTT7=
EXTT8=
EXTT9=
EXTT10=
EXTT11=
EXTT12=
EXTT13=
EXTT14=
EXTT15=
EXTT16=
EXTT17=
PLAYORDER=
